<svg xmlns="http://www.w3.org/2000/svg" viewBox="0 0 60 60" width="60" height="60" preserveAspectRatio="xMidYMid meet" style="width: 100%; height: 100%;"><defs><clipPath id="__lottie_element_2"><rect width="60" height="60" x="0" y="0"/></clipPath><path d="" fill-opacity="1"/><mask id="__lottie_element_6" mask-type="alpha"><g fill="none" stroke-linecap="round" stroke-dashoffset="1" stroke="#fff" stroke-width="4" opacity="1"><path d=" M3.5,-18.94499969482422 C3.5,-18.94499969482422 14.166000366210938,-19.83300018310547 16.944000244140625,-18.611000061035156 C19.722000122070312,-17.388999938964844 27.277000427246094,-11.722999572753906 23.944000244140625,3.055000066757202 C23.273000717163086,6.031000137329102 19.055999755859375,17.388999938964844 5.388999938964844,22.611000061035156 C1.2999999523162842,24.17300033569336 -9.611000061035156,27.611000061035156 -19.722000122070312,14.833000183105469 C-21.29599952697754,12.843999862670898 -26.277999877929688,8.055000305175781 -24.16699981689453,-3.8340001106262207 C-22.055999755859375,-15.722999572753906 -12.833000183105469,-21.16699981689453 -9.944000244140625,-22.055999755859375 C-7.054999828338623,-22.94499969482422 0.27799999713897705,-25.388999938964844 4.388999938964844,-24.722000122070312 C8.5,-24.05500030517578 9.387999534606934,-22.722000122070312 9.944000244140625,-21.388999938964844" stroke-dasharray="0 0 0 0 0 1601.1383056640625 0 0"/></g></mask></defs><g clip-path="url(#__lottie_element_2)"><g transform="matrix(1,0,0,1,29.5,29.5)" opacity="1" style="display: block;"><g mask="url(#__lottie_element_6)"><g opacity="1" transform="matrix(1,0,0,1,0,0)"><path fill="rgb(33,33,33)" fill-opacity="1" d=" M25.1200008392334,-8.75 C25.06999969482422,-9.1899995803833 24.90999984741211,-9.619999885559082 24.760000228881836,-10.029999732971191 C24.690000534057617,-10.199999809265137 24.6299991607666,-10.380000114440918 24.56999969482422,-10.5600004196167 C24.5,-10.800000190734863 24.43000030517578,-11.039999961853027 24.360000610351562,-11.289999961853027 C24.200000762939453,-11.859999656677246 24.030000686645508,-12.449999809265137 23.770000457763672,-13 C23.559999465942383,-13.470000267028809 23.290000915527344,-13.90999984741211 23.020000457763672,-14.329999923706055 C22.809999465942383,-14.65999984741211 22.600000381469727,-15 22.420000076293945,-15.34000015258789 C21.149999618530273,-17.790000915527344 18.93000030517578,-19.200000762939453 15.649999618530273,-19.649999618530273 C13.899999618530273,-19.889999389648438 12.100000381469727,-19.8799991607666 10.34000015258789,-19.8799991607666 C10.34000015258789,-19.8799991607666 10.25,-19.8799991607666 10.25,-19.8799991607666 C8.970000267028809,-19.8700008392334 7.670000076293945,-19.790000915527344 6.420000076293945,-19.709999084472656 C5.96999979019165,-19.690000534057617 5.519999980926514,-19.65999984741211 5.079999923706055,-19.6299991607666 C4.929999828338623,-19.6200008392334 4.800000190734863,-19.559999465942383 4.690000057220459,-19.510000228881836 C4.650000095367432,-19.489999771118164 4.619999885559082,-19.469999313354492 4.579999923706055,-19.459999084472656 C4.579999923706055,-19.459999084472656 4.389999866485596,-19.360000610351562 4.389999866485596,-19.360000610351562 C4.389999866485596,-19.360000610351562 4.510000228881836,-18.75 4.510000228881836,-18.75 C4.510000228881836,-18.75 4.71999979019165,-18.75 4.71999979019165,-18.75 C5.190000057220459,-18.75 5.650000095367432,-18.760000228881836 6.119999885559082,-18.760000228881836 C7.159999847412109,-18.770000457763672 8.229999542236328,-18.780000686645508 9.279999732971191,-18.739999771118164 C10.979999542236328,-18.68000030517578 12.949999809265137,-18.600000381469727 14.869999885559082,-18.399999618530273 C16.639999389648438,-18.219999313354492 18.040000915527344,-17.68000030517578 19.15999984741211,-16.760000228881836 C20.229999542236328,-15.880000114440918 20.889999389648438,-15.079999923706055 21.290000915527344,-14.170000076293945 C21.450000762939453,-13.819999694824219 21.610000610351562,-13.460000038146973 21.780000686645508,-13.109999656677246 C22.270000457763672,-12.069999694824219 22.780000686645508,-11 23.010000228881836,-9.90999984741211 C23.5,-7.550000190734863 23.799999237060547,-5.550000190734863 23.719999313354492,-3.490000009536743 C23.719999313354492,-3.490000009536743 23.700000762939453,-2.859999895095825 23.700000762939453,-2.859999895095825 C23.6299991607666,-0.9800000190734863 23.559999465942383,0.9700000286102295 22.889999389648438,2.7699999809265137 C22.190000534057617,4.659999847412109 21.399999618530273,6.670000076293945 20.440000534057617,8.619999885559082 C19.709999084472656,10.100000381469727 18.81999969482422,11.539999961853027 17.780000686645508,12.899999618530273 C15.869999885559082,15.420000076293945 13.15999984741211,17.190000534057617 10.520000457763672,18.729999542236328 C9.699999809265137,19.209999084472656 8.84000015258789,19.639999389648438 8.1899995803833,19.969999313354492 C7.820000171661377,20.15999984741211 7.440000057220459,20.360000610351562 7.070000171661377,20.549999237060547 C4.420000076293945,21.90999984741211 1.690000057220459,23.31999969482422 -1.409999966621399,23.459999084472656 C-3.4800000190734863,23.549999237060547 -5.050000190734863,23.40999984741211 -6.369999885559082,23.010000228881836 C-8.40999984741211,22.3799991607666 -10.380000114440918,21.389999389648438 -12.289999961853027,20.440000534057617 C-12.289999961853027,20.440000534057617 -12.569999694824219,20.290000915527344 -12.569999694824219,20.290000915527344 C-14.670000076293945,19.25 -16.270000457763672,17.989999771118164 -17.459999084472656,16.450000762939453 C-17.75,16.079999923706055 -18.049999237060547,15.710000038146973 -18.350000381469727,15.34000015258789 C-18.899999618530273,14.649999618530273 -19.469999313354492,13.949999809265137 -19.979999542236328,13.229999542236328 C-21.860000610351562,10.59000015258789 -22.940000534057617,7.670000076293945 -23.200000762939453,4.53000020980835 C-23.200000762939453,4.53000020980835 -23.219999313354492,4.309999942779541 -23.219999313354492,4.309999942779541 C-23.40999984741211,1.9900000095367432 -23.610000610351562,-0.41999998688697815 -23.1299991607666,-2.7300000190734863 C-22.719999313354492,-4.710000038146973 -22.219999313354492,-7.010000228881836 -21.450000762939453,-9.140000343322754 C-20.5,-11.729999542236328 -18.889999389648438,-14.220000267028809 -16.65999984741211,-16.520000457763672 C-15.760000228881836,-17.450000762939453 -14.930000305175781,-18.209999084472656 -14.130000114440918,-18.84000015258789 C-12.210000038146973,-20.3700008392334 -9.850000381469727,-21.229999542236328 -7.579999923706055,-22.049999237060547 C-7.579999923706055,-22.049999237060547 -7.090000152587891,-22.229999542236328 -7.090000152587891,-22.229999542236328 C-5.96999979019165,-22.6299991607666 -4.769999980926514,-22.899999618530273 -3.5999999046325684,-23.15999984741211 C-3.319999933242798,-23.219999313354492 -3.0399999618530273,-23.280000686645508 -2.75,-23.350000381469727 C-0.49000000953674316,-23.8700008392334 1.5499999523162842,-24.09000015258789 3.4600000381469727,-24.030000686645508 C5.579999923706055,-23.959999084472656 7.059999942779541,-23.40999984741211 8.289999961853027,-22.25 C8.510000228881836,-22.040000915527344 8.800000190734863,-21.93000030517578 9.119999885559082,-21.809999465942383 C9.260000228881836,-21.760000228881836 9.420000076293945,-21.700000762939453 9.579999923706055,-21.6299991607666 C9.579999923706055,-21.6299991607666 10.109999656677246,-21.3799991607666 10.109999656677246,-21.3799991607666 C10.109999656677246,-21.3799991607666 9.920000076293945,-21.940000534057617 9.920000076293945,-21.940000534057617 C9.869999885559082,-22.079999923706055 9.819999694824219,-22.209999084472656 9.770000457763672,-22.31999969482422 C9.739999771118164,-22.389999389648438 9.710000038146973,-22.459999084472656 9.6899995803833,-22.510000228881836 C9.829999923706055,-22.709999084472656 9.890000343322754,-22.920000076293945 9.859999656677246,-23.1200008392334 C9.819999694824219,-23.3799991607666 9.649999618530273,-23.610000610351562 9.350000381469727,-23.829999923706055 C9.350000381469727,-23.829999923706055 9.270000457763672,-23.889999389648438 9.270000457763672,-23.889999389648438 C8.760000228881836,-24.25 8.239999771118164,-24.6299991607666 7.650000095367432,-24.81999969482422 C4.570000171661377,-25.799999237060547 1.4900000095367432,-25.540000915527344 -1.1100000143051147,-25.15999984741211 C-3.3499999046325684,-24.829999923706055 -5.5,-24.149999618530273 -7.570000171661377,-23.489999771118164 C-7.570000171661377,-23.489999771118164 -7.769999980926514,-23.420000076293945 -7.769999980926514,-23.420000076293945 C-8.850000381469727,-23.079999923706055 -9.890000343322754,-22.68000030517578 -10.859999656677246,-22.290000915527344 C-10.859999656677246,-22.290000915527344 -11.279999732971191,-22.1299991607666 -11.279999732971191,-22.1299991607666 C-11.9399995803833,-21.8700008392334 -12.619999885559082,-21.610000610351562 -13.210000038146973,-21.209999084472656 C-14.680000305175781,-20.219999313354492 -15.989999771118164,-19.309999465942383 -17.18000030517578,-18.209999084472656 C-19.600000381469727,-15.979999542236328 -21.43000030517578,-13.5 -22.6200008392334,-10.84000015258789 C-23.399999618530273,-9.09000015258789 -24.030000686645508,-7.320000171661377 -24.489999771118164,-5.599999904632568 C-24.979999542236328,-3.759999990463257 -25.299999237060547,-1.9800000190734863 -25.420000076293945,-0.30000001192092896 C-25.700000762939453,3.490000009536743 -25.270000457763672,6.869999885559082 -24.100000381469727,10.020000457763672 C-23.559999465942383,11.5 -22.75,12.930000305175781 -21.5,14.680000305175781 C-21.389999389648438,14.829999923706055 -21.309999465942383,14.989999771118164 -21.219999313354492,15.149999618530273 C-21.100000381469727,15.380000114440918 -20.959999084472656,15.630000114440918 -20.770000457763672,15.84000015258789 C-20.770000457763672,15.84000015258789 -20.219999313354492,16.459999084472656 -20.219999313354492,16.459999084472656 C-19.440000534057617,17.329999923706055 -18.639999389648438,18.229999542236328 -17.739999771118164,19 C-16.540000915527344,20.040000915527344 -15.220000267028809,21 -13.8100004196167,21.860000610351562 C-12.800000190734863,22.469999313354492 -11.710000038146973,22.989999771118164 -10.65999984741211,23.489999771118164 C-10.300000190734863,23.670000076293945 -9.9399995803833,23.84000015258789 -9.579999923706055,24.010000228881836 C-7.570000171661377,25 -5.380000114440918,25.5 -3.059999942779541,25.5 C-2.440000057220459,25.5 -1.8200000524520874,25.459999084472656 -1.190000057220459,25.389999389648438 C1.3899999856948853,25.110000610351562 4.03000020980835,24.280000686645508 7.349999904632568,22.700000762939453 C8.479999542236328,22.15999984741211 9.59000015258789,21.549999237060547 10.65999984741211,20.959999084472656 C11.029999732971191,20.75 11.399999618530273,20.549999237060547 11.760000228881836,20.350000381469727 C13.350000381469727,19.489999771118164 15.140000343322754,18.510000228881836 16.520000457763672,17.049999237060547 C16.540000915527344,17.020000457763672 16.59000015258789,16.989999771118164 16.639999389648438,16.959999084472656 C16.709999084472656,16.920000076293945 16.780000686645508,16.8700008392334 16.84000015258789,16.81999969482422 C17.079999923706055,16.59000015258789 17.350000381469727,16.3700008392334 17.610000610351562,16.149999618530273 C18.219999313354492,15.630000114440918 18.850000381469727,15.100000381469727 19.290000915527344,14.4399995803833 C20.239999771118164,12.989999771118164 21.030000686645508,11.430000305175781 21.790000915527344,9.90999984741211 C21.790000915527344,9.90999984741211 22.09000015258789,9.329999923706055 22.09000015258789,9.329999923706055 C22.969999313354492,7.590000152587891 23.649999618530273,6.119999885559082 24.239999771118164,4.710000038146973 C24.65999984741211,3.690000057220459 25.059999465942383,2.5899999141693115 25.209999084472656,1.4600000381469727 C25.420000076293945,-0.1599999964237213 25.520000457763672,-1.909999966621399 25.5,-3.759999990463257 C25.479999542236328,-5.460000038146973 25.290000915527344,-7.210000038146973 25.1200008392334,-8.75"/></g></g></g></g></svg>