<svg xmlns="http://www.w3.org/2000/svg" width="122" height="10"><path d="M.01 6.775c.807.197 1.535.45 2.282.543 3.017.373 5.729-.313 7.756-2.75 2.623-3.152 6.037-4.386 9.92-4.034 3.51.318 6.848 1.423 9.836 3.466 1.159.792 2.427 1.425 3.674 2.07.384.2.873.296 1.304.272 1.684-.092 3.327-.374 4.925-.993 1.533-.593 2.696-1.692 3.972-2.654.913-.688 1.856-1.408 2.896-1.83 1.444-.586 3.007-.78 4.58-.854 1.665-.079 3.197.266 4.655 1.068.615.338 1.131.753 1.456 1.388.96 1.88 2.568 3.033 4.379 3.911.477.231 1.08.252 1.628.26 2.058.033 4.003-.468 5.913-1.25 1.652-.678 3.046-1.731 4.487-2.744C76.151.902 78.858.602 81.714 1.487c.381.118.755.264 1.127.412.906.36 1.685.897 2.268 1.708 1.2 1.672 2.818 2.67 4.8 3.12 3.017.685 5.504-.36 7.562-2.506 1.416-1.475 3.198-2.19 4.982-2.953.232-.1.512-.117.769-.116 1.61.004 3.223-.014 4.831.061.55.026 1.125.222 1.627.468 2.547 1.246 5.076 2.528 7.605 3.81 1.324.671 2.76.93 4.193 1.187.383.07.536.215.522.617-.026.7-.008 1.4-.008 2.166-1.94-.44-3.822-.724-5.61-1.448-1.77-.717-3.38-1.695-4.977-2.738-1.008-.659-2.166-1.083-3.263-1.598-.15-.07-.34-.079-.51-.073-2.106.064-4.12.549-6.045 1.403-.312.138-.57.399-.855.598-1.186.831-2.408 1.614-3.55 2.503-1.075.838-2.225 1.382-3.572 1.59-1.8.277-3.618.57-5.344-.142-1.173-.484-2.228-1.27-3.334-1.923-1.647-.975-3.287-1.963-4.942-2.924-.855-.497-1.74-.42-2.712-.296-1.747.221-3.14 1.128-4.599 1.963-.904.517-1.805 1.126-2.787 1.398-2.334.644-4.652 1.37-7.125 1.43-1.708.043-3.063-.539-4.313-1.614-1.24-1.067-2.506-2.103-3.757-3.156-.278-.233-.516-.533-.824-.71-2.12-1.223-4.349-1.092-6.44-.116-1.116.52-2 1.576-2.95 2.437-.945.857-1.896 1.71-3.093 2.163-.952.36-1.93.664-2.982.627-1.436-.05-2.873-.067-4.31-.063-1.152.003-2.162-.34-3.115-1.004-.754-.524-1.585-.936-2.393-1.376-1.116-.609-2.225-1.234-3.367-1.787-2.319-1.124-4.76-1.617-7.33-1.32-.912.104-1.842.154-2.724.387-1.358.36-2.453 1.176-3.366 2.28-1.62 1.964-3.706 3.108-6.18 3.629-1.721.362-3.405.321-5.11-.004C.136 9.505-.015 9.353 0 8.95c.03-.716.01-1.435.01-2.175" fill="#EC6427" fill-rule="evenodd"/></svg>